<svg width="68" height="127" viewBox="0 0 68 127" fill="none" xmlns="http://www.w3.org/2000/svg">
<path fill-rule="evenodd" clip-rule="evenodd" d="M34.0772 22.7143C36.1789 22.7143 38.1946 21.8794 39.6808 20.3932C41.167 18.907 42.0019 16.8913 42.0019 14.7896C42.0019 12.6878 41.167 10.6721 39.6808 9.18595C38.1946 7.69978 36.1789 6.86485 34.0772 6.86485C31.9754 6.86485 29.9597 7.69978 28.4735 9.18595C26.9874 10.6721 26.1525 12.6878 26.1525 14.7896C26.1525 16.8913 26.9874 18.907 28.4735 20.3932C29.9597 21.8794 31.9754 22.7143 34.0772 22.7143ZM34.0772 29.054C37.8603 29.054 41.4886 27.5512 44.1637 24.8761C46.8388 22.201 48.3416 18.5727 48.3416 14.7896C48.3416 11.0064 46.8388 7.37816 44.1637 4.70305C41.4886 2.02795 37.8603 0.525085 34.0772 0.525085C30.294 0.525085 26.6658 2.02795 23.9907 4.70305C21.3155 7.37816 19.8127 11.0064 19.8127 14.7896C19.8127 18.5727 21.3155 22.201 23.9907 24.8761C26.6658 27.5512 30.294 29.054 34.0772 29.054ZM24.4407 41.7336C20.098 41.7336 17.1563 43.8416 15.2259 46.5867C13.438 49.1258 12.3825 52.3844 11.5234 55.1993C10.8895 57.2914 10.7722 57.7288 10.4742 58.8731L10.4647 58.908C10.0494 60.5025 9.30768 63.3332 6.67668 72.6273C6.25191 74.1393 7.0951 75.9493 9.00654 76.4724C10.9719 77.0144 12.7946 75.832 13.2479 74.2376C16.1324 64.0306 16.7537 61.6088 17.0644 60.3979V60.3884C17.3116 59.4215 17.4004 59.0887 18.0597 56.9205C18.9473 54.0042 19.7715 51.668 20.9031 50.0609L20.9095 50.0482L20.938 50.0133L26.2888 52.7806L13.736 98.1575C17.4765 99.1529 23.42 100.376 34.0803 100.376C44.4078 100.376 50.8807 99.2258 54.4532 98.2685L41.8687 52.7806L47.2163 50.0038L47.2544 50.0609C48.386 51.668 49.2102 54.0042 50.0978 56.9237C50.7571 59.0919 50.8459 59.4215 51.0931 60.3884V60.3979C51.4038 61.6088 52.0251 64.0337 54.9096 74.2376C55.3629 75.832 57.1825 77.0144 59.151 76.4724C61.0624 75.9493 61.9088 74.1393 61.4808 72.6273C60.1868 68.1255 58.9399 63.6102 57.7404 59.0824L57.6833 58.8731C57.3853 57.7288 57.2712 57.2882 56.6341 55.1961C55.7782 52.3844 54.7195 49.1258 52.9316 46.5867C50.998 43.8416 48.0595 41.7336 43.72 41.7336H24.4407ZM63.5508 57.247C63.9533 58.7876 64.6824 61.5834 67.3007 70.83C67.645 72.0369 67.747 73.3001 67.6009 74.5467C67.4547 75.7933 67.0634 76.9986 66.4493 78.0933C65.8352 79.1879 65.0106 80.1502 64.023 80.9248C63.0353 81.6993 61.9042 82.2707 60.6947 82.6061C59.324 82.9825 57.8858 83.0432 56.4883 82.7836L60.3333 96.6835C61.1924 99.79 59.655 103.385 56.3076 104.313C52.2121 105.455 45.1337 106.716 34.0803 106.716C22.8716 106.716 16.4177 105.417 12.1923 104.288C8.8322 103.391 6.97465 99.7615 7.9066 96.3951L11.6724 82.7836C10.303 83.0372 8.86707 82.9896 7.46281 82.6061C6.25333 82.2707 5.12218 81.6993 4.13453 80.9248C3.14688 80.1502 2.32227 79.1879 1.7082 78.0933C1.09414 76.9986 0.702765 75.7933 0.556637 74.5467C0.410508 73.3001 0.512514 72.0369 0.856773 70.83C3.4751 61.5834 4.20417 58.7907 4.60675 57.247V57.2375C4.93641 55.9822 5.07272 55.4719 5.74156 53.2751C6.57524 50.5395 7.88124 46.3236 10.3347 42.8335C13.2193 38.7285 17.8695 35.3938 24.4407 35.3938H43.7168C50.2848 35.3938 54.9318 38.7285 57.8228 42.8335C60.2763 46.3204 61.5791 50.5364 62.4128 53.2751C63.0499 55.3673 63.2052 55.9283 63.5 57.0631L63.5508 57.247ZM18.2277 111.515V122.207C18.2279 123.359 18.6459 124.471 19.4043 125.338C20.1626 126.205 21.2096 126.766 22.3509 126.919C23.4922 127.072 24.6503 126.806 25.61 126.17C26.5698 125.533 27.266 124.57 27.5694 123.46L30.4889 112.761C26.3836 112.55 22.2915 112.134 18.2277 111.515ZM40.829 112.739L43.7548 123.46C44.0581 124.57 44.7541 125.533 45.7135 126.169C46.6729 126.806 47.8306 127.072 48.9717 126.92C50.1128 126.767 51.1598 126.206 51.9184 125.34C52.677 124.474 53.0955 123.362 53.0965 122.211V111.471C49.0297 112.088 44.9359 112.511 40.829 112.739Z" fill="black"/>
</svg>
