<svg width="33" height="33" viewBox="0 0 33 33" fill="none" xmlns="http://www.w3.org/2000/svg">
<path d="M9.83061 15.4214C9.47663 15.4214 9.13715 15.562 8.88684 15.8123C8.63654 16.0626 8.49592 16.4021 8.49592 16.7561C8.49592 17.1101 8.63654 17.4496 8.88684 17.6999C9.13715 17.9502 9.47663 18.0908 9.83061 18.0908H23.1775C23.5315 18.0908 23.871 17.9502 24.1213 17.6999C24.3716 17.4496 24.5122 17.1101 24.5122 16.7561C24.5122 16.4021 24.3716 16.0626 24.1213 15.8123C23.871 15.562 23.5315 15.4214 23.1775 15.4214H9.83061ZM16.5041 0.739838C14.4008 0.739838 12.3181 1.15411 10.3749 1.959C8.43171 2.76389 6.66609 3.94364 5.17885 5.43089C3.6916 6.91814 2.51185 8.68376 1.70696 10.6269C0.902066 12.5701 0.487793 14.6528 0.487793 16.7561C0.487793 18.8594 0.902066 20.9421 1.70696 22.8853C2.51185 24.8284 3.6916 26.5941 5.17885 28.0813C6.66609 29.5685 8.43171 30.7483 10.3749 31.5532C12.3181 32.3581 14.4008 32.7724 16.5041 32.7724C20.7518 32.7724 24.8256 31.0849 27.8293 28.0813C30.8329 25.0777 32.5203 21.0039 32.5203 16.7561C32.5203 12.5083 30.8329 8.43452 27.8293 5.43089C24.8256 2.42726 20.7518 0.739838 16.5041 0.739838ZM3.15717 16.7561C3.15717 13.2163 4.56335 9.82145 7.06638 7.31843C9.56941 4.8154 12.9642 3.40921 16.5041 3.40921C20.0439 3.40921 23.4387 4.8154 25.9417 7.31843C28.4448 9.82145 29.8509 13.2163 29.8509 16.7561C29.8509 20.2959 28.4448 23.6907 25.9417 26.1938C23.4387 28.6968 20.0439 30.103 16.5041 30.103C12.9642 30.103 9.56941 28.6968 7.06638 26.1938C4.56335 23.6907 3.15717 20.2959 3.15717 16.7561Z" fill="black"/>
</svg>
