<svg width="86" height="197" viewBox="0 0 86 197" fill="none" xmlns="http://www.w3.org/2000/svg">
<path d="M24.3524 79.3881V181.808C24.3391 183.035 24.5572 184.252 24.9938 185.388C25.4304 186.524 26.0767 187.556 26.8947 188.423C27.7127 189.29 28.686 189.976 29.7573 190.439C30.8286 190.902 31.9764 191.133 33.1331 191.119C34.2899 191.133 35.4377 190.902 36.509 190.439C37.5803 189.976 38.5535 189.29 39.3716 188.423C40.1896 187.556 40.8359 186.524 41.2725 185.388C41.7091 184.252 41.9271 183.035 41.9139 181.808" stroke="black" stroke-width="7" stroke-miterlimit="10" stroke-linecap="round"/>
<path d="M41.9151 129.046V181.808C41.8996 183.035 42.1541 184.252 42.6634 185.388C43.1728 186.524 43.9268 187.556 44.8811 188.423C45.8355 189.29 46.971 189.976 48.2208 190.439C49.4707 190.902 50.8097 191.133 52.1593 191.119C53.5089 191.133 54.8479 190.902 56.0978 190.439C57.3477 189.976 58.4831 189.29 59.4375 188.423C60.3918 187.556 61.1459 186.524 61.6552 185.388C62.1646 184.252 62.419 183.035 62.4035 181.808V79.3881" stroke="black" stroke-width="7" stroke-miterlimit="10" stroke-linecap="round"/>
<path d="M25.0839 74.3893V108.349C25.0983 109.57 24.8714 110.781 24.4168 111.911C23.9622 113.041 23.289 114.068 22.4367 114.931C21.5845 115.794 20.5704 116.475 19.4542 116.936C18.3379 117.396 17.1421 117.626 15.9369 117.611C14.7317 117.626 13.5358 117.396 12.4196 116.936C11.3034 116.475 10.2893 115.794 9.43704 114.931C8.58479 114.068 7.91156 113.041 7.45695 111.911C7.00233 110.781 6.77551 109.57 6.78982 108.349V74.3893C6.78982 69.4766 8.71723 64.765 12.148 61.2911C15.5789 57.8173 20.232 55.8657 25.0839 55.8657H61.6722C66.5241 55.8657 71.1773 57.8173 74.6081 61.2911C78.0389 64.765 79.9663 69.4766 79.9663 74.3893V108.349C79.9806 109.57 79.7538 110.781 79.2992 111.911C78.8446 113.041 78.1713 114.068 77.3191 114.931C76.4668 115.794 75.4528 116.475 74.3365 116.936C73.2203 117.396 72.0244 117.626 70.8192 117.611C69.6141 117.626 68.4182 117.396 67.3019 116.936C66.1857 116.475 65.1716 115.794 64.3194 114.931C63.4671 114.068 62.7939 113.041 62.3393 111.911C61.8847 110.781 61.6579 109.57 61.6722 108.349V74.3893" stroke="black" stroke-width="7" stroke-miterlimit="10" stroke-linecap="round"/>
<path d="M43.378 35.2836C52.2693 35.2836 59.4771 28.7015 59.4771 20.5821C59.4771 12.4627 52.2693 5.88062 43.378 5.88062C34.4867 5.88062 27.2789 12.4627 27.2789 20.5821C27.2789 28.7015 34.4867 35.2836 43.378 35.2836Z" stroke="black" stroke-width="7" stroke-miterlimit="10" stroke-linecap="round"/>
</svg>
