<svg width="32" height="32" viewBox="0 0 32 32" fill="none" xmlns="http://www.w3.org/2000/svg">
<path d="M15.943 0.140259C7.33266 0.140259 0.327148 7.14577 0.327148 15.7561C0.327148 24.3665 7.33266 31.372 15.943 31.372C24.5533 31.372 31.5589 24.3665 31.5589 15.7561C31.5589 7.14577 24.5533 0.140259 15.943 0.140259ZM15.943 2.5427C23.2548 2.5427 29.1564 8.44429 29.1564 15.7561C29.1564 23.0679 23.2548 28.9695 15.943 28.9695C8.63118 28.9695 2.72959 23.0679 2.72959 15.7561C2.72959 8.44429 8.63118 2.5427 15.943 2.5427ZM14.7418 8.5488V14.5549H8.73569V16.9573H14.7418V22.9634H17.1442V16.9573H23.1503V14.5549H17.1442V8.5488H14.7418Z" fill="black"/>
</svg>
