<svg width="96" height="185" viewBox="0 0 96 185" fill="none" xmlns="http://www.w3.org/2000/svg">
<g clip-path="url(#clip0_10_305)">
<path d="M30.331 134.599V173.313C30.3176 174.49 30.5394 175.658 30.9837 176.748C31.4279 177.838 32.0854 178.828 32.9177 179.66C33.75 180.493 34.7403 181.15 35.8303 181.595C36.9203 182.039 38.0881 182.261 39.2651 182.247C40.4421 182.261 41.6099 182.039 42.6999 181.595C43.7899 181.15 44.7801 180.493 45.6124 179.66C46.4448 178.828 47.1023 177.838 47.5465 176.748C47.9907 175.658 48.2126 174.49 48.1992 173.313" stroke="black" stroke-width="7" stroke-miterlimit="10" stroke-linecap="round"/>
<path d="M48.1992 134.599V173.313C48.1857 174.49 48.4076 175.658 48.8518 176.748C49.296 177.838 49.9536 178.828 50.7859 179.66C51.6182 180.493 52.6084 181.15 53.6985 181.595C54.7885 182.039 55.9563 182.261 57.1332 182.247C58.3102 182.261 59.478 182.039 60.568 181.595C61.6581 181.15 62.6483 180.493 63.4806 179.66C64.3129 178.828 64.9705 177.838 65.4147 176.748C65.8589 175.658 66.0808 174.49 66.0673 173.313V134.599M21.0247 99.6071C20.7028 100.739 20.1578 101.796 19.4217 102.715C18.6856 103.633 17.7734 104.396 16.7385 104.957C15.7037 105.518 14.5671 105.867 13.3956 105.982C12.2241 106.098 11.0413 105.978 9.91669 105.63C8.78443 105.308 7.72795 104.763 6.80939 104.027C5.89083 103.291 5.12873 102.379 4.5679 101.344C4.00708 100.309 3.65885 99.1721 3.5437 98.0006C3.42854 96.8291 3.54879 95.6464 3.89736 94.5221L13.2037 63.1486C14.2299 59.6996 16.3429 56.6744 19.228 54.5238C22.1131 52.3733 25.6158 51.2124 29.2143 51.2142H67.1841C70.7828 51.2137 74.2854 52.376 77.1699 54.5279C80.0544 56.6799 82.1663 59.7062 83.191 63.156L92.4973 94.5295C92.8458 95.6539 92.9661 96.8365 92.8509 98.008C92.7358 99.1795 92.3876 100.316 91.8267 101.351C91.2659 102.386 90.5038 103.298 89.5852 104.035C88.6667 104.771 87.6102 105.316 86.4779 105.638C85.3543 105.982 84.1732 106.099 83.0038 105.981C81.8345 105.863 80.7004 105.513 79.668 104.952C78.6356 104.39 77.7257 103.628 76.9915 102.71C76.2573 101.793 75.7136 100.738 75.3922 99.6071" stroke="black" stroke-width="7" stroke-miterlimit="10" stroke-linecap="round"/>
<path d="M48.1992 33.346C56.4228 33.346 63.0893 26.6795 63.0893 18.4559C63.0893 10.2323 56.4228 3.5658 48.1992 3.5658C39.9756 3.5658 33.3091 10.2323 33.3091 18.4559C33.3091 26.6795 39.9756 33.346 48.1992 33.346Z" stroke="black" stroke-width="7" stroke-miterlimit="10" stroke-linecap="round"/>
<path d="M30.331 69.0823L12.4629 128.643H83.9354L66.0673 69.0823" stroke="black" stroke-width="7" stroke-linecap="round" stroke-linejoin="round"/>
</g>
<defs>
<clipPath id="clip0_10_305">
<rect width="94.4959" height="184.187" fill="white" transform="translate(0.951172 0.812988)"/>
</clipPath>
</defs>
</svg>
